<?xml version="1.0" encoding="UTF-8"?> <svg xmlns="http://www.w3.org/2000/svg" id="Artwork" viewBox="0 0 228 100"><defs><style>.cls-1{fill:#fff;}</style></defs><path id="Path_1662" class="cls-1" d="M17.42,4.97h4.77l-3.87,2.81,1.52,4.83-4.03-2.81-4.03,2.81,1.52-4.83-3.87-2.81h4.77L15.82,.38l1.6,4.59ZM30.83,.38l-1.61,4.59h-4.77l3.87,2.81-1.52,4.83,4.03-2.81,4.03,2.81-1.52-4.83,3.87-2.81h-4.77L30.83,.38Zm1.35,67.6c-7.78,4.96-13.84,1.97-16.96,0-5.85-3.69-10.47-1.59-12.04-.06v4.23c1.5-1.5,3.55-2.31,5.67-2.25,0,0,2.26-.22,6.08,1.71,2.57,1.29,8.38,5.43,17.53,0,1.83-1.12,3.94-1.71,6.09-1.71,2.17-.07,4.27,.79,5.77,2.35v-4.24c-1.46-1.54-6.18-3.84-12.14-.04Zm0,5.42c-7.78,4.96-13.84,1.97-16.96,0-5.85-3.69-10.47-1.16-12.04,.4v4.65c1.42-1.51,3.38-3.12,5.67-3.12,0,0,2.26-.22,6.08,1.71,2.57,1.29,8.38,5.43,17.53,0,1.83-1.12,3.94-1.71,6.09-1.71,2.34,0,4.34,1.64,5.77,3.17v-4.66c-1.46-1.54-6.18-4.23-12.14-.44h0Zm11.82-32.5c.74-3.63-.87-5.21-2.47-5.88,.28-1.68-.33-3.37-1.61-4.5-.71-.73-1.59-1.27-2.56-1.57,.92-3.46-.27-6.82-4.14-7.85-.96-.25-1.97-.25-2.93,0-2.33-3.93-7.41-5.23-11.34-2.9-1.16,.69-2.14,1.65-2.84,2.8-1.7-.32-3.45,.12-4.8,1.19-2.09,1.66-2.86,4.49-1.91,6.98-2.35,.06-4.2,2.02-4.14,4.37,.02,.59,.15,1.16,.4,1.69-1.66,.73-2.75,2.35-2.8,4.16,0,.41,.06,.82,.18,1.21-3.09,2-3.98,6.13-1.98,9.23,1.25,1.93,3.4,3.08,5.69,3.05,.88,0,1.76-.17,2.57-.51,1.66,3.26,5.65,4.55,8.9,2.89,.29-.15,.56-.31,.82-.5v9.02c-6.52-3.67-9.53-3.55-10.55-3.55-1.94-.04-3.83,.62-5.33,1.85v4.22c1.19-1.24,4.12-2.11,6.34-2.01,2.23,.23,4.39,.94,6.31,2.08,2.1,1.26,4.4,2.14,6.8,2.62v-20.03c-1.42,1.58-3.46,2.44-5.58,2.35-3.09,0-5.66-1.58-6.26-3.67-.4,.46-.91,.82-1.49,1.03-1.6,.68-3.45-.07-4.13-1.67,0,0,0-.01,0-.02-.51-1.68,.43-3.45,2.1-3.99,.2-.07,.41-.13,.62-.17-1.09-.82-1.54-2.24-1.11-3.54,.52-1.13,1.94-1.65,3.51-1.39-.54-.61-.84-1.39-.84-2.21,.16-2.2,2.06-3.86,4.26-3.71,.17,0,.34,0,.51,.03-.75-.81-1.16-1.87-1.16-2.98-.02-2.37,1.88-4.32,4.26-4.34,.62,0,1.23,.14,1.79,.4,.48-2.36,2.78-3.89,5.14-3.41,1.75,.35,3.1,1.74,3.42,3.49,.64-.36,1.37-.54,2.11-.52,2.41,.07,4.31,2.07,4.24,4.48,.02,1.06-.34,2.09-1.01,2.91,.15-.01,.29-.02,.44-.02,2.16-.14,4.04,1.48,4.2,3.64,0,.65-.2,1.29-.57,1.83,1.66-.1,3.08,1.16,3.18,2.82,.05,.75-.2,1.5-.67,2.08,.05,0,.09,.01,.13,.02,1.73,.3,2.88,1.94,2.59,3.67-.3,1.71-1.94,2.86-3.66,2.55,0,0-.01,0-.02,0-.88-.16-1.66-.68-2.14-1.43-.38,2.23-2.98,3.95-6.11,3.95-2.05,.07-4.04-.71-5.5-2.15v20c2.4-.47,4.7-1.36,6.79-2.62,1.93-1.15,4.08-1.86,6.31-2.08,2.3-.1,5.24,.71,6.33,2.02v-4.22c-1.1-1.3-3.75-1.94-5.32-1.86-1.02,0-4.06-.12-10.58,3.55v-9.02c.79,.45,1.65,.75,2.54,.87,2.82,.27,5.56-1.01,7.16-3.35,3.58,1.1,7.37-.91,8.47-4.48,.05-.16,.09-.33,.13-.49,.1-.45,.15-.92,.15-1.38,0-2.07-1.1-3.99-2.87-5.04h0Zm-23.56,44.33c0-.76-.18-1.02-.76-1.02h-.43v2.82h.43c.58,0,.76-.26,.76-1.02v-.79h0Zm6.45,11.57c.21,0,.59-.02,.79-.03v2.75c-.38,.05-.77,.08-1.16,.08-2.51,0-5.09-1.35-5.93-3.61-.24-.76-.35-1.57-.31-2.37v-3.09c0-.79-.39-1.2-.99-1.2h-.04v6.22h-2.69v-13.67h3.25c2.27,0,3.24,.77,3.24,2.55v1.5c.16,1.13-.63,2.18-1.76,2.34-.13,.02-.26,.02-.39,.02v.08c1.63,.1,2.15,.75,2.15,2.38v2.89s-.1,3.12,3.85,3.18m-23.71-1.3h2.69v-6.17h2.18v-2.31h-2.18v-2.79h2.42v-2.3H3.18v13.57Zm9.73-10.22c0-.54-.02-.7-.13-.89-.21-.27-.61-.31-.87-.1-.04,.03-.07,.06-.1,.1-.12,.18-.13,.35-.13,.89v6.81c0,.54,.02,.7,.13,.89,.21,.27,.61,.31,.87,.1,.04-.03,.07-.06,.1-.1,.12-.18,.13-.35,.13-.89v-6.81Zm-.62-3.55c.99-.08,1.96,.3,2.62,1.04,.58,.92,.82,2.01,.7,3.09v5.64c.12,1.08-.13,2.17-.7,3.09-1.47,1.39-3.77,1.39-5.24,0-.58-.92-.82-2.01-.7-3.09v-5.64c-.12-1.08,.13-2.17,.7-3.09,.66-.74,1.63-1.12,2.62-1.04m25.97,.19v2.3h1.69v11.27h2.69v-11.27h1.69v-2.3h-6.06Zm-10.45,3.23c.04-.25,0-.51-.12-.74-.21-.24-.57-.27-.81-.06-.02,.02-.05,.04-.06,.06-.11,.23-.15,.49-.12,.74v1.86h1.11v-1.86Zm-.57-3.4c.89-.07,1.77,.21,2.45,.79,.61,.72,.89,1.66,.77,2.59v4.19h-3.76v2.96c0,.42,.02,.57,.12,.72,.21,.24,.57,.27,.81,.06,.02-.02,.05-.04,.06-.06,.1-.15,.12-.3,.12-.72v-1.57h2.66v1.94c.06,.8-.22,1.6-.77,2.18-.68,.58-1.56,.87-2.45,.79-.89,.08-1.77-.21-2.44-.79-.61-.72-.89-1.66-.77-2.59v-7.11c-.32-1.53,.66-3.03,2.19-3.35,.34-.07,.68-.08,1.02-.03m8.43,5.86l-.35-.22c-1.06-.66-1.23-.89-1.23-1.5v-1.02c0-.44,.18-.67,.54-.67,.18-.01,.35,.08,.44,.23,.08,.17,.1,.29,.1,1.46v.5h2.69v-.66c0-1.66-.08-2.34-.79-3.08-.66-.61-1.54-.93-2.44-.87-1.58-.19-3.02,.94-3.21,2.52-.02,.18-.03,.37-.01,.55v1.25c0,1.81,.67,2.35,2.32,3.38l.35,.22c1.06,.66,1.21,.89,1.21,1.5v1.32c0,.47-.23,.67-.54,.67-.18,.01-.35-.08-.44-.24-.08-.18-.08-.12-.08-1.29v-.96h-2.69v.96c0,1.66,.08,2.34,.79,3.08,.66,.61,1.54,.93,2.44,.87,1.58,.19,3.02-.94,3.21-2.52,.02-.18,.03-.37,.01-.55v-1.55c0-1.82-.67-2.35-2.32-3.38M60.72,28.28h-4.2v19.86h4.2v-9.28l1.93,9.28h4.2V28.28h-4.2v8.85l-1.93-8.86Zm17.48,3.04c0-1.68-1.36-3.03-3.04-3.04h-4.14c-1.68,0-3.03,1.36-3.04,3.04v13.79c0,1.68,1.36,3.03,3.04,3.04h4.14c1.68,0,3.03-1.36,3.04-3.04v-13.79Zm-4.29,12.6c0,.25-.11,.37-.37,.37h-.9c-.25,0-.37-.11-.37-.37v-11.41c0-.25,.11-.37,.37-.37h.9c.25,0,.37,.11,.37,.37v11.41Zm11.92-11.77h2.5v-3.86h-9.28v3.86h2.5v16h4.28v-16Zm9.85,0h2.5v-3.86h-9.28v3.86h2.5v16h4.28v-16Zm7.63-3.86h-4.28v19.86h4.28V28.28Zm5.33,0h-4.2v19.86h4.2v-9.28l1.93,9.28h4.21V28.28h-4.2v8.85l-1.94-8.85Zm12.32,12.88h.88v2.75c0,.25-.11,.37-.37,.37h-.9c-.25,0-.37-.11-.37-.37v-11.41c0-.25,.11-.37,.37-.37h.9c.25,0,.37,.11,.37,.37v3.86l4.28-.51v-4.54c0-1.68-1.36-3.03-3.04-3.04h-4.14c-1.68,0-3.03,1.36-3.04,3.04v13.79c0,1.68,1.36,3.03,3.04,3.04h3.01c.76,0,1.48-.29,2.04-.79l.6,.79h1.53v-10.84h-5.16v3.86Zm10.58-4.91v-7.97h-4.28v19.86h4.28v-8.03h1.65v8.03h4.28V28.29h-4.28v7.97h-1.65Zm12.97,11.89h4.28l-2.24-19.86h-6.16l-2.21,19.86h3.89l.34-3.29h1.76l.34,3.29Zm-1.1-14.19l.6,7.09h-1.25l.65-7.09Zm12.17,4.88l-1.82-10.56h-4.25v19.86h3.35v-8.43l1.59,8.43h2.07l1.45-8.43v8.43h3.43V28.29h-3.8l-2.02,10.56Zm10.64,9.31h4.28v-7.8h3.41v-3.86h-3.41v-4.34h3.89v-3.86h-8.17v19.86Zm19.24-16.83c0-1.68-1.36-3.03-3.04-3.04h-4.14c-1.68,0-3.03,1.36-3.04,3.04v13.79c0,1.68,1.36,3.03,3.04,3.04h4.14c1.68,0,3.03-1.36,3.04-3.04v-13.79Zm-4.28,12.6c0,.25-.11,.37-.37,.37h-.9c-.25,0-.37-.11-.37-.37v-11.41c0-.25,.11-.37,.37-.37h.9c.25,0,.37,.11,.37,.37v11.41Zm11.35,.74c-.02,.87,.02,1.74,.11,2.61,.03,.34,.09,.62,.11,.88h4.43c-.25-.94-.37-1.9-.37-2.87v-4.4c.03-1.06-.66-2-1.67-2.3,1.03-.3,1.72-1.26,1.67-2.33v-4.94c0-1.68-1.36-3.03-3.04-3.04h-7.18v19.86h4.28v-7.63h.77c.44-.04,.83,.28,.88,.72,0,.05,0,.11,0,.16v3.26Zm0-8.37c0,.25-.11,.37-.37,.37h-1.28v-4.52h1.28c.25,0,.37,.11,.37,.37v3.78Zm5.36,11.86h8.63v-3.86h-4.34v-4.17h2.72v-3.86h-2.72v-4.12h4.34v-3.86h-8.63v19.86Zm14.53-7.77c1.05,.82,1.16,1.39,1.16,2.87v.68c0,.25-.11,.37-.37,.37h-.9c-.26,0-.37-.11-.37-.37v-2.7l-4.28,.48v3.41c0,1.68,1.36,3.03,3.04,3.04h4.14c1.68,0,3.03-1.36,3.04-3.04v-3.49c.09-1.61-.68-3.15-2.01-4.06l-3.15-2.53c-.54-.43-.77-.62-.77-1.76v-.77c0-.25,.11-.37,.37-.37h.9c.25,0,.37,.11,.37,.37v1.99l4.28-.51v-2.67c0-1.68-1.36-3.03-3.04-3.04h-4.14c-1.68,0-3.03,1.36-3.04,3.04v2.95c-.13,1.44,.49,2.84,1.65,3.71l3.12,2.39Zm13.08-8.23h2.5v-3.86h-9.28v3.86h2.5v16h4.28v-16ZM66.74,59.36v-4.82c0-1.68-1.36-3.03-3.04-3.04h-4.14c-1.68,0-3.03,1.36-3.04,3.04v13.79c0,1.68,1.36,3.03,3.04,3.04h4.14c1.68,0,3.03-1.36,3.04-3.04v-5.28l-4.28-.51v4.6c0,.26-.11,.37-.37,.37h-.9c-.25,0-.37-.11-.37-.37v-11.4c0-.25,.11-.37,.37-.37h.9c.25,0,.37,.11,.37,.37v4.14l4.28-.51Zm11.35-4.82c0-1.68-1.36-3.03-3.04-3.04h-4.14c-1.68,0-3.03,1.36-3.04,3.04v13.79c0,1.68,1.36,3.03,3.04,3.04h4.14c1.68,0,3.03-1.36,3.04-3.04v-13.79Zm-4.28,12.6c0,.26-.11,.37-.37,.37h-.91c-.25,0-.37-.11-.37-.37v-11.4c0-.25,.11-.37,.37-.37h.9c.25,0,.37,.11,.37,.37v11.4Zm11.5-5.08l-1.82-10.56h-4.26v19.86h3.35v-8.43l1.59,8.43h2.07l1.45-8.43v8.43h3.43v-19.86h-3.8l-2.01,10.56Zm13.02,0l-1.82-10.56h-4.26v19.86h3.35v-8.43l1.59,8.43h2.07l1.45-8.43v8.43h3.44v-19.86h-3.8l-2.02,10.56Zm11.24-10.56h-4.28v16.83c0,1.68,1.36,3.03,3.04,3.04h4.06c1.68,0,3.03-1.36,3.04-3.04v-16.83h-4.2v15.64c0,.26-.11,.37-.37,.37h-.9c-.25,0-.37-.11-.37-.37v-15.63Zm11.18,0h-4.2v19.86h4.2v-9.28l1.93,9.28h4.2v-19.86h-4.2v8.85l-1.93-8.85Zm11.55,0h-4.28v19.86h4.28v-19.86Zm7.63,3.86h2.5v-3.86h-9.28v3.86h2.5v16h4.28v-16Zm7.38-3.86h-4.46l3.43,13.19v6.67h4.28v-6.67l3.49-13.19h-4.12l-1.42,6.19-1.22-6.19Zm17.65,3.86h2.5v-3.86h-9.28v3.86h2.5v16h4.28v-16Zm9.28,12.51c-.02,.87,.02,1.74,.11,2.61,.03,.34,.09,.62,.11,.88h4.43c-.25-.94-.37-1.9-.37-2.87v-4.4c.03-1.06-.66-2-1.67-2.3,1.03-.3,1.72-1.26,1.67-2.33v-4.94c0-1.68-1.36-3.03-3.04-3.04h-7.18v19.86h4.28v-7.63h.77c.44-.04,.83,.28,.88,.72,0,.05,0,.11,0,.16v3.26Zm0-8.37c0,.25-.11,.37-.37,.37h-1.28v-4.52h1.28c.25,0,.37,.11,.37,.37v3.78Zm9.65-8h-4.28v16.83c0,1.68,1.36,3.03,3.04,3.04h4.06c1.68,0,3.03-1.36,3.04-3.04v-16.83h-4.2v15.64c0,.26-.11,.37-.37,.37h-.9c-.25,0-.37-.11-.37-.37v-15.63Zm11.74,12.09c1.05,.82,1.16,1.39,1.16,2.87v.68c0,.26-.11,.37-.37,.37h-.9c-.25,0-.37-.11-.37-.37v-2.7l-4.28,.48v3.41c0,1.68,1.36,3.03,3.04,3.04h4.14c1.68,0,3.03-1.36,3.04-3.04v-3.49c.09-1.61-.68-3.15-2.01-4.06l-3.15-2.53c-.54-.43-.77-.62-.77-1.76v-.76c0-.25,.11-.37,.37-.37h.9c.25,0,.37,.11,.37,.37v1.99l4.28-.51v-2.67c0-1.68-1.36-3.03-3.04-3.04h-4.14c-1.68,0-3.03,1.36-3.04,3.04v2.95c-.13,1.44,.49,2.84,1.65,3.71l3.12,2.39Zm13.08-8.23h2.5v-3.86h-9.28v3.86h2.5v16h4.28v-16Z"></path></svg> 